<svg width="95" height="49" viewBox="0 0 95 49" fill="none" xmlns="http://www.w3.org/2000/svg">
<path d="M77.0478 38.76V34.16L88.6478 28.8C89.1811 28.56 89.7011 28.36 90.2078 28.2C90.7411 28.0133 91.1545 27.8933 91.4478 27.84C91.1545 27.7867 90.7411 27.6933 90.2078 27.56C89.6745 27.4 89.1545 27.2 88.6478 26.96L77.0478 21.56V16.88L94.9678 25.32V30.32L77.0478 38.76Z" fill="black"/>
<path d="M59.4078 45.4L73.4078 7.8H78.6078L64.6078 45.4H59.4078Z" fill="black"/>
<path d="M19.5956 48.2V19H24.4756V23.2H25.5956L24.4756 24.36C24.4756 22.5733 25.009 21.1733 26.0756 20.16C27.1423 19.12 28.5823 18.6 30.3956 18.6C32.609 18.6 34.3823 19.36 35.7156 20.88C37.049 22.4 37.7156 24.44 37.7156 27V32.96C37.7156 34.6667 37.409 36.16 36.7956 37.44C36.209 38.6933 35.369 39.6667 34.2756 40.36C33.1823 41.0533 31.889 41.4 30.3956 41.4C28.5823 41.4 27.1423 40.8933 26.0756 39.88C25.009 38.84 24.4756 37.4267 24.4756 35.64L25.5956 36.8H24.4356L24.5956 42.04V48.2H19.5956ZM28.6356 37.08C29.9156 37.08 30.9156 36.7067 31.6356 35.96C32.3556 35.2133 32.7156 34.1467 32.7156 32.76V27.24C32.7156 25.8533 32.3556 24.7867 31.6356 24.04C30.9156 23.2933 29.9156 22.92 28.6356 22.92C27.3823 22.92 26.3956 23.3067 25.6756 24.08C24.9556 24.8267 24.5956 25.88 24.5956 27.24V32.76C24.5956 34.12 24.9556 35.1867 25.6756 35.96C26.3956 36.7067 27.3823 37.08 28.6356 37.08ZM54.38 41.4C52.5667 41.4 51.1267 40.8933 50.06 39.88C48.9933 38.84 48.46 37.4267 48.46 35.64L49.58 36.8H48.46V41H43.58V11.8H48.58V17.96L48.42 23.2H49.58L48.46 24.36C48.46 22.5733 48.9933 21.1733 50.06 20.16C51.1267 19.12 52.5667 18.6 54.38 18.6C56.5933 18.6 58.3667 19.36 59.7 20.88C61.0333 22.4 61.7 24.4533 61.7 27.04V33C61.7 35.56 61.0333 37.6 59.7 39.12C58.3667 40.64 56.5933 41.4 54.38 41.4ZM52.62 37.08C53.9 37.08 54.9 36.7067 55.62 35.96C56.34 35.2133 56.7 34.1467 56.7 32.76V27.24C56.7 25.8533 56.34 24.7867 55.62 24.04C54.9 23.2933 53.9 22.92 52.62 22.92C51.3667 22.92 50.38 23.3067 49.66 24.08C48.94 24.8267 48.58 25.88 48.58 27.24V32.76C48.58 34.12 48.94 35.1867 49.66 35.96C50.38 36.7067 51.3667 37.08 52.62 37.08Z" fill="black"/>
<path d="M17.9678 38.76L0.0478127 30.32V25.32L17.9678 16.88V21.48L6.36781 26.84C5.83448 27.08 5.30115 27.2933 4.76781 27.48C4.26115 27.64 3.86115 27.7467 3.56781 27.8C3.86115 27.8533 4.27448 27.96 4.80781 28.12C5.34115 28.28 5.86115 28.48 6.36781 28.72L17.9678 34.08V38.76Z" fill="black"/>
</svg>
